<?xml version="1.0" encoding="UTF-8"?>
<svg xmlns="http://www.w3.org/2000/svg" viewBox="0 0 1200 300" preserveAspectRatio="xMidYMid slice" width="1200" height="300" role="img" aria-label="Animated parallax starfield">
  <!-- background -->
  <rect width="1200" height="300" fill="#030218"/>
  <!-- far layer (slowest) -->
  <g id="far" fill="#9bb0ff" opacity="0.55">
    <circle cx="50" cy="20" r="1.6"/>
    <circle cx="200" cy="80" r="1.2"/>
    <circle cx="350" cy="40" r="1.4"/>
    <circle cx="500" cy="110" r="1.1"/>
    <circle cx="720" cy="30" r="1.5"/>
    <circle cx="980" cy="90" r="1.2"/>
    <circle cx="1120" cy="50" r="1.3"/>
    <animateTransform attributeName="transform" type="translate" from="0 0" to="0 -320" dur="60s" repeatCount="indefinite" />
  </g>

  <!-- middle layer -->
  <g id="mid" fill="#e6eeff" opacity="0.75">
    <circle cx="120" cy="150" r="1.9"/>
    <circle cx="260" cy="200" r="1.6"/>
    <circle cx="420" cy="170" r="2.0"/>
    <circle cx="610" cy="140" r="1.8"/>
    <circle cx="800" cy="190" r="1.6"/>
    <circle cx="940" cy="160" r="1.9"/>
    <circle cx="1080" cy="210" r="1.7"/>
    <animateTransform attributeName="transform" type="translate" from="0 0" to="0 -360" dur="38s" repeatCount="indefinite" />
  </g>

  <!-- near layer (fastest) -->
  <g id="near" fill="#ffffff" opacity="0.95">
    <circle cx="30" cy="240" r="2.2"/>
    <circle cx="180" cy="260" r="2.0"/>
    <circle cx="320" cy="230" r="1.8"/>
    <circle cx="470" cy="250" r="2.4"/>
    <circle cx="640" cy="220" r="2.1"/>
    <circle cx="860" cy="260" r="2.0"/>
    <circle cx="1030" cy="240" r="2.3"/>
    <animateTransform attributeName="transform" type="translate" from="0 0" to="0 -420" dur="22s" repeatCount="indefinite" />
  </g>

  <!-- subtle nebula glow -->
  <radialGradient id="neb" cx="30%" cy="20%" r="60%">
    <stop offset="0%" stop-color="#2a0f6f" stop-opacity="0.45" />
    <stop offset="100%" stop-color="#030218" stop-opacity="0" />
  </radialGradient>
  <ellipse cx="300" cy="80" rx="220" ry="70" fill="url(#neb)">
    <animate attributeName="cx" values="300;600;300" dur="30s" repeatCount="indefinite" />
  </ellipse>

  <!-- rocket (simple) travelling diagonally -->
  <g id="rocket" transform="translate(-140,240) scale(0.9)">
    <g id="body" transform="rotate(-18)">
      <path d="M0 0 L10 -28 L20 0 Z" fill="#e6f0ff"/>
      <rect x="6" y="0" width="8" height="20" rx="2" ry="2" fill="#9fb3ff"/>
      <circle cx="10" cy="-12" r="2.2" fill="#081a3d"/>
      <!-- flame -->
      <path d="M8 1 C10 6, 12 6, 14 1 C12 8, 10 8, 8 1Z" fill="#ffd87a" opacity="0.9">
        <animate attributeName="opacity" values="0.6;1;0.6" dur="0.35s" repeatCount="indefinite" />
      </path>
    </g>
    <animateTransform attributeName="transform" type="translate" dur="6.5s" repeatCount="indefinite"
      values="-140,240; 200,80; 640,-40; 1200,-120" keyTimes="0;0.33;0.66;1" />
  </g>

  <!-- small twinkle animation applied by tiny opacity change on a few stars -->
  <circle cx="720" cy="30" r="1.5" fill="#ffffff" opacity="0.9">
    <animate attributeName="opacity" values="0.2;0.9;0.2" dur="3.5s" repeatCount="indefinite" />
  </circle>
  <circle cx="500" cy="110" r="1.6" fill="#ffffff" opacity="0.6">
    <animate attributeName="opacity" values="0.1;0.7;0.1" dur="5s" repeatCount="indefinite" />
  </circle>

</svg>
